<svg fill="none" height="24" viewBox="0 0 132 24" width="132" xmlns="http://www.w3.org/2000/svg" xmlns:xlink="http://www.w3.org/1999/xlink"><clipPath id="a"><path d="m0 0h131.478v24h-131.478z"/></clipPath><g clip-path="url(#a)"><g fill="#fff"><path d="m124.061 4.25409c-7.611 0-8.974 2.38827-9.879 5.5442l-1.085 3.93421c-.298 1.0982-.479 1.9938-.394 2.6868.277 2.1644 2.629 2.9214 8.303 2.9001 2.874-.0213 5.876-.7357 7.963-1.8659l1.032-3.625h-7.153l-.149.5331c-.458 1.6313-1.299 1.6099-1.789 1.5886-1.16-.0213-1.128-.693-.851-1.6526l.362-1.3327h9.804l.969-3.4225c1.213-4.37139-1.512-5.28831-7.133-5.28831zm.085 5.38427h-2.789c.511-1.80186 1.033-2.02577 1.938-2.00444 1.277.02132 1.192.84229.851 2.00444z"/><path d="m113.873 4.22211.82.07463-1.362 4.94713c-2.566 0-3.748.5331-4.386 2.76143l-.394 1.4074c-.245.8956-.969 1.7699.362 2.3989l-.905 3.2412h-9.0168l.9049-3.2838c.4259-.16.9689-.3199 1.4269-1.9085l1.149-4.09419c.33-1.21546.394-1.47135-.33-1.90849l.905-3.28387h7.654l-.33 1.15149c1.267-1.23678 2.172-1.50333 3.502-1.50333z"/><path d="m93.4562 4.2541c-7.1643.04265-8.495 1.81253-9.517 5.49089l-1.0539 3.76371c-1.2987 4.6166.0639 5.832 7.0686 5.8107 6.4085-.0213 8.5908-1.3114 9.8575-5.8107l1.0536-3.76371c1.15-4.1155-.149-5.53353-7.4088-5.49089zm.2448 5.53354-1.1497 4.17946c-.5748 2.0151-1.2135 1.9938-1.9374 1.9725-1.2668-.0214-1.1497-.6397-.7558-1.9725l1.1497-4.17946c.3619-1.21546.6387-2.17503 1.9693-2.15371.873 0 1.2349.39449.7239 2.15371z"/><path d="m76.6151 9.26522c.1809-.63971.2129-1.05553.0319-1.29009-.1171-.23456-.3939-.34118-.8836-.34118-1.0006 0-1.3945.25589-1.8203 1.81253l-1.2881 4.60592c-.4471 1.6526-.1171 1.8552.7771 1.8765.841 0 1.3839-.2559 1.9588-2.3136l.2129-.757h6.6959l-1.2349 4.478c-1.9374 1.1941-4.7265 1.9511-8.9208 1.9725-7.1004.0213-7.3772-2.4416-6.5894-5.3097l1.3626-4.81917c.8516-3.02799 2.6613-4.91515 9.2614-4.93647 4.2156-.02133 6.5363.77832 8.016 1.7912l-1.0859 3.94491h-6.6746l.1171-.45846z"/></g><path d="m61.9562 24 .9474-3.3265h-18.3419l-.9474 3.3265z" fill="#ffbf00"/><g fill="#fff"><path d="m57.9431 3.99822c-1.5969-.02132-1.9907 1.36473-1.9056 1.82319.2023 1.08752 3.6195 1.47134 5.4079 1.97246 3.5555 1.00222 4.0452 2.81473 3.3533 5.20303l-.032.0853c-1.0858 3.8809-4.1517 6.1839-11.0605 6.2052-3.662.0213-6.4298-.6504-8.2501-1.9405l1.3626-4.9791h7.3878c-.1171.4798-.2555.9276-.3726 1.3861-.1383.4798-.4258 1.514 1.1604 1.5353.5642.0213 1.501-.2346 1.8736-1.4287.5109-1.6952-.5962-1.9938-3.662-2.5802-2.9594-.5864-6.0892-1.2794-4.8969-5.5975 1.1071-3.87027 4.3327-5.6828 10.3686-5.6828 3.5555 0 6.153.50111 8.4524 1.94047l-1.2242 4.37139h-7.0898l.0851-.35185c.4046-1.41803.1491-1.94047-.958-1.96179z"/><path d="m39.2178 5.11774c-7.1537 0-8.4311 2.24966-9.2827 5.25636l-1.022 3.6997c-.2874 1.0342-.4577 1.8871-.3726 2.5375.2555 2.0364 2.4698 2.7508 7.8031 2.7294 2.7039-.0213 5.5143-.693 7.473-1.7485l.9687-3.4225h-6.7065l-.1384.5011c-.4258 1.5353-1.2242 1.514-1.682 1.4927-1.0965-.0213-1.0645-.6504-.809-1.5567l.3406-1.2581h9.2082l.9155-3.2305c1.1497-4.12619-1.4051-5.00046-6.6959-5.00046zm.0852 5.10706h-2.6081c.479-1.72723.9687-1.95113 1.8203-1.92981 1.1923.03199 1.1071.82097.7878 1.92981z"/><path d="m25.187 4.98976c2.5016-.04265 4.4071.84229 3.5555 3.96624l-1.4158 5.1177c-.3726 1.3221-.3726 1.4927.2874 1.8019l-.8516 3.0493h-7.1324c.0319-.853-.1384-.789.6813-3.721l.1384-.5224 1.1071-3.9983c.2023-.693.4578-1.75919-1.139-1.88713-.2875 0-.5642.04265-.8836.14927l-1.4265 5.12836c-.3726 1.2368-.4577 1.4714.3194 1.8019l-.8623 3.0493h-8.32467l.85167-3.0493c.9687-.3732 1.0219-.693 1.3093-1.7166l2.5017-8.956c.2236-.90626.3726-1.49267-.3726-1.7912l.8516-3.049312h7.5476l-1.5329 5.512212c.958-.38383 2.2994-.86361 4.7904-.88494z"/><path d="m11.902 5.29897-.8836 3.11329h-2.22488l-1.44777 5.23504c-.45775 1.6099-.54291 1.9937 1.5968 2.2176l-.85163 3.1027-3.38522.1919c-4.492337.2559-5.312029-.9063-4.343302-4.3608l1.756482-6.38644h-.81969l.88356-3.11329h.8197l.73452-2.66548 7.07913-1.45002-1.13902 4.1155z"/></g></g></svg>
